<svg width="120" height="27" viewBox="0 0 120 27" fill="none" xmlns="http://www.w3.org/2000/svg">
<path d="M38.4701 19.2639C37.9336 19.2639 37.3882 19.1759 36.834 19C36.2887 18.8241 35.862 18.5866 35.5542 18.2875L36.1215 16.1236C36.3766 16.4755 36.7285 16.7833 37.1771 17.0472C37.6345 17.3111 38.1051 17.4431 38.5889 17.4431C38.9144 17.4431 39.1475 17.3815 39.2882 17.2583C39.4377 17.1352 39.5125 16.9856 39.5125 16.8097C39.5125 16.6074 39.4377 16.4623 39.2882 16.3743C39.1387 16.2775 38.9847 16.1984 38.8264 16.1368L37.7181 15.7146C37.4718 15.6178 37.1903 15.4859 36.8736 15.3187C36.5569 15.1516 36.2799 14.9141 36.0424 14.6062C35.8137 14.2984 35.6993 13.8937 35.6993 13.3924C35.6993 12.935 35.8137 12.5127 36.0424 12.1257C36.2711 11.7387 36.6009 11.4264 37.0319 11.1889C37.4718 10.9426 37.9995 10.8194 38.6153 10.8194C39.187 10.8194 39.7192 10.9162 40.2118 11.1097C40.7132 11.3032 41.0782 11.5187 41.3069 11.7562L40.7792 13.841C40.4801 13.4539 40.1238 13.1593 39.7104 12.9569C39.3058 12.7458 38.9188 12.6403 38.5493 12.6403C38.2678 12.6403 38.0611 12.6975 37.9292 12.8118C37.7972 12.9262 37.7312 13.0581 37.7312 13.2076C37.7312 13.322 37.7752 13.4363 37.8632 13.5507C37.96 13.6562 38.1183 13.753 38.3382 13.841L39.3674 14.2236C39.6664 14.3292 39.9831 14.4699 40.3174 14.6458C40.6604 14.8218 40.9507 15.0681 41.1882 15.3847C41.4257 15.6926 41.5444 16.1192 41.5444 16.6646C41.5444 17.4299 41.2586 18.0544 40.6868 18.5382C40.1238 19.022 39.385 19.2639 38.4701 19.2639ZM43.7896 19V12.9042H42.3118V11.0833H43.8291V8.44444H46.0458V11.0833H47.616V12.9042H46.0854V19H43.7896ZM48.8035 19V11.0833H50.8618V12.4424C51.1345 11.985 51.4775 11.6331 51.891 11.3868C52.3132 11.1317 52.8058 11.0042 53.3687 11.0042L53.8701 13.0361C53.703 12.9833 53.5139 12.9569 53.3028 12.9569C52.643 12.9569 52.1109 13.1725 51.7062 13.6035C51.3016 14.0257 51.0993 14.6326 51.0993 15.4243V19H48.8035ZM58.7145 19.2639C57.8261 19.2639 57.0432 19.0792 56.3659 18.7097C55.6886 18.3403 55.1608 17.8345 54.7826 17.1924C54.4044 16.5414 54.2152 15.7981 54.2152 14.9625C54.2152 14.162 54.4 13.4539 54.7694 12.8382C55.1388 12.2137 55.6358 11.7211 56.2604 11.3604C56.8937 10.9998 57.593 10.8194 58.3583 10.8194C59.1412 10.8194 59.8405 10.9998 60.4562 11.3604C61.0719 11.7123 61.5557 12.1961 61.9076 12.8118C62.2682 13.4275 62.4486 14.1269 62.4486 14.9097V15.7146H57.6194C57.3995 15.7146 57.1884 15.7014 56.9861 15.675C56.7838 15.6486 56.5814 15.6178 56.3791 15.5826C56.4847 16.1104 56.7442 16.5414 57.1576 16.8757C57.5798 17.2012 58.1164 17.3639 58.7673 17.3639C59.2687 17.3639 59.7173 17.2627 60.1132 17.0604C60.5178 16.8581 60.8476 16.6074 61.1027 16.3083L61.6041 18.3667C61.2083 18.6657 60.7597 18.89 60.2583 19.0396C59.7657 19.1891 59.2511 19.2639 58.7145 19.2639ZM56.3263 14.1972C56.7662 14.1005 57.1972 14.0521 57.6194 14.0521H59.018C59.2643 14.0521 59.4974 14.0609 59.7173 14.0785C59.9372 14.0961 60.1439 14.1269 60.3375 14.1708C60.2055 13.6958 59.9636 13.322 59.6118 13.0493C59.2687 12.7766 58.8421 12.6403 58.3319 12.6403C57.8481 12.6403 57.4259 12.781 57.0652 13.0625C56.7134 13.3352 56.4671 13.7134 56.3263 14.1972ZM67.2839 19.2111C66.5538 19.2111 65.8897 19.022 65.2916 18.6437C64.6934 18.2655 64.214 17.7641 63.8534 17.1396C63.5015 16.5062 63.3256 15.8069 63.3256 15.0417C63.3256 14.2764 63.5015 13.5771 63.8534 12.9438C64.214 12.3104 64.6934 11.809 65.2916 11.4396C65.8897 11.0613 66.5538 10.8722 67.2839 10.8722C67.7941 10.8722 68.2603 10.9646 68.6825 11.1493C69.1048 11.3252 69.4654 11.5715 69.7645 11.8882V11.0833H71.7436V19H69.7645V18.1951C69.4654 18.5118 69.1048 18.7625 68.6825 18.9472C68.2603 19.1231 67.7941 19.2111 67.2839 19.2111ZM67.561 17.1924C67.948 17.1924 68.2999 17.0956 68.6166 16.9021C68.9332 16.7086 69.1839 16.4491 69.3686 16.1236C69.5622 15.7981 69.6589 15.4375 69.6589 15.0417C69.6589 14.6458 69.5622 14.2852 69.3686 13.9597C69.1839 13.6343 68.9332 13.3748 68.6166 13.1812C68.2999 12.9877 67.948 12.891 67.561 12.891C67.174 12.891 66.8221 12.9877 66.5054 13.1812C66.1888 13.3748 65.9337 13.6343 65.7402 13.9597C65.5554 14.2852 65.4631 14.6458 65.4631 15.0417C65.4631 15.4375 65.5554 15.7981 65.7402 16.1236C65.9337 16.4491 66.1888 16.7086 66.5054 16.9021C66.8221 17.0956 67.174 17.1924 67.561 17.1924ZM73.4812 19V11.0833H75.5395V11.9542C75.821 11.5847 76.1685 11.3032 76.5819 11.1097C77.0041 10.9162 77.4439 10.8194 77.9013 10.8194C78.3675 10.8194 78.8073 10.9162 79.2208 11.1097C79.6342 11.3032 79.9816 11.5847 80.2631 11.9542C80.571 11.5847 80.9536 11.3032 81.411 11.1097C81.8685 10.9162 82.3654 10.8194 82.902 10.8194C83.465 10.8194 83.9928 10.9514 84.4854 11.2153C84.9779 11.4704 85.3782 11.8486 85.686 12.35C85.9939 12.8426 86.1479 13.4451 86.1479 14.1576V19H83.852V14.4875C83.852 14.0653 83.7289 13.6914 83.4826 13.366C83.2363 13.0405 82.88 12.8778 82.4138 12.8778C82.1675 12.8778 81.93 12.9394 81.7013 13.0625C81.4814 13.1769 81.3011 13.3528 81.1604 13.5903C81.0284 13.819 80.9624 14.1093 80.9624 14.4611V19H78.6666V14.4875C78.6666 14.206 78.6094 13.9421 78.4951 13.6958C78.3895 13.4495 78.2268 13.2516 78.0069 13.1021C77.7958 12.9525 77.5363 12.8778 77.2284 12.8778C76.9821 12.8778 76.7446 12.9394 76.5159 13.0625C76.296 13.1769 76.1157 13.3528 75.9749 13.5903C75.843 13.819 75.777 14.1093 75.777 14.4611V19H73.4812ZM87.7576 19V6.33333H90.0534V19H87.7576ZM95.6924 19.2639C94.9095 19.2639 94.1926 19.0748 93.5417 18.6965C92.8908 18.3183 92.3718 17.8081 91.9847 17.166C91.6065 16.5238 91.4174 15.8157 91.4174 15.0417C91.4174 14.2588 91.6065 13.5507 91.9847 12.9174C92.3718 12.2752 92.8908 11.765 93.5417 11.3868C94.1926 11.0086 94.9095 10.8194 95.6924 10.8194C96.484 10.8194 97.2009 11.0086 97.8431 11.3868C98.494 11.765 99.0086 12.2752 99.3868 12.9174C99.7739 13.5507 99.9674 14.2588 99.9674 15.0417C99.9674 15.8157 99.7739 16.5238 99.3868 17.166C99.0086 17.8081 98.494 18.3183 97.8431 18.6965C97.2009 19.0748 96.484 19.2639 95.6924 19.2639ZM95.6924 17.2056C96.0882 17.2056 96.4445 17.1088 96.7611 16.9153C97.0866 16.7218 97.3417 16.4623 97.5264 16.1368C97.7199 15.8025 97.8167 15.4375 97.8167 15.0417C97.8167 14.637 97.7199 14.272 97.5264 13.9465C97.3417 13.6211 97.0866 13.3616 96.7611 13.1681C96.4445 12.9745 96.0882 12.8778 95.6924 12.8778C95.2965 12.8778 94.9359 12.9745 94.6104 13.1681C94.2938 13.3616 94.0387 13.6211 93.8452 13.9465C93.6604 14.272 93.5681 14.637 93.5681 15.0417C93.5681 15.4375 93.6604 15.8025 93.8452 16.1368C94.0387 16.4623 94.2938 16.7218 94.6104 16.9153C94.9359 17.1088 95.2965 17.2056 95.6924 17.2056ZM105.192 19.2639C104.41 19.2639 103.693 19.0748 103.042 18.6965C102.391 18.3183 101.872 17.8081 101.485 17.166C101.107 16.5238 100.917 15.8157 100.917 15.0417C100.917 14.2588 101.107 13.5507 101.485 12.9174C101.872 12.2752 102.391 11.765 103.042 11.3868C103.693 11.0086 104.41 10.8194 105.192 10.8194C105.984 10.8194 106.701 11.0086 107.343 11.3868C107.994 11.765 108.509 12.2752 108.887 12.9174C109.274 13.5507 109.467 14.2588 109.467 15.0417C109.467 15.8157 109.274 16.5238 108.887 17.166C108.509 17.8081 107.994 18.3183 107.343 18.6965C106.701 19.0748 105.984 19.2639 105.192 19.2639ZM105.192 17.2056C105.588 17.2056 105.944 17.1088 106.261 16.9153C106.587 16.7218 106.842 16.4623 107.026 16.1368C107.22 15.8025 107.317 15.4375 107.317 15.0417C107.317 14.637 107.22 14.272 107.026 13.9465C106.842 13.6211 106.587 13.3616 106.261 13.1681C105.944 12.9745 105.588 12.8778 105.192 12.8778C104.797 12.8778 104.436 12.9745 104.11 13.1681C103.794 13.3616 103.539 13.6211 103.345 13.9465C103.16 14.272 103.068 14.637 103.068 15.0417C103.068 15.4375 103.16 15.8025 103.345 16.1368C103.539 16.4623 103.794 16.7218 104.11 16.9153C104.436 17.1088 104.797 17.2056 105.192 17.2056ZM110.813 22.9583V11.0833H112.792V11.8618C113.1 11.5539 113.461 11.312 113.874 11.1361C114.297 10.9602 114.758 10.8722 115.26 10.8722C115.999 10.8722 116.667 11.0613 117.265 11.4396C117.863 11.809 118.338 12.3104 118.69 12.9438C119.051 13.5771 119.231 14.2764 119.231 15.0417C119.231 15.8069 119.051 16.5062 118.69 17.1396C118.338 17.7641 117.863 18.2655 117.265 18.6437C116.667 19.022 115.999 19.2111 115.26 19.2111C114.838 19.2111 114.446 19.1451 114.085 19.0132C113.725 18.89 113.399 18.7185 113.109 18.4986V22.9583H110.813ZM114.996 17.1924C115.383 17.1924 115.735 17.0956 116.051 16.9021C116.368 16.7086 116.619 16.4491 116.803 16.1236C116.997 15.7981 117.094 15.4375 117.094 15.0417C117.094 14.6458 116.997 14.2852 116.803 13.9597C116.619 13.6343 116.368 13.3748 116.051 13.1812C115.735 12.9877 115.383 12.891 114.996 12.891C114.609 12.891 114.257 12.9877 113.94 13.1812C113.624 13.3748 113.369 13.6343 113.175 13.9597C112.99 14.2852 112.898 14.6458 112.898 15.0417C112.898 15.4375 112.99 15.7981 113.175 16.1236C113.369 16.4491 113.624 16.7086 113.94 16.9021C114.257 17.0956 114.609 17.1924 114.996 17.1924Z" fill="#E4E4E6"/>
<path d="M25 13.1559C25 10.252 23.9738 7.44403 22.1071 5.24021C20.2404 3.03639 17.6565 1.58231 14.8231 1.14113C11.9897 0.69996 9.09404 1.30084 6.66012 2.83504C4.2262 4.36923 2.41487 6.73536 1.55395 9.5052C0.693029 12.275 0.839398 15.2656 1.96657 17.9356C3.09374 20.6055 5.12723 22.7786 7.69902 24.0614C10.2708 25.3441 13.211 25.6519 15.9874 24.929C18.7638 24.2061 21.193 22.5002 22.8354 20.1202M22.8354 20.1202L17 21M22.8354 20.1202L22.1071 26" stroke="url(#paint0_linear_8_65)" stroke-width="1.8"/>
<path d="M10 15.4242V8.92992C10 8.1191 10.9143 7.64537 11.5767 8.11295L17.0968 12.0095C17.7231 12.4516 17.6395 13.4049 16.9459 13.7313L11.4258 16.329C10.7626 16.6412 10 16.1572 10 15.4242Z" fill="url(#paint1_linear_8_65)"/>
<defs>
<linearGradient id="paint0_linear_8_65" x1="13" y1="1" x2="13" y2="26" gradientUnits="userSpaceOnUse">
<stop stop-color="#B8DAD4"/>
<stop offset="1" stop-color="#AEA9ED"/>
</linearGradient>
<linearGradient id="paint1_linear_8_65" x1="14.25" y1="7" x2="14.25" y2="17" gradientUnits="userSpaceOnUse">
<stop stop-color="#B8DAD4"/>
<stop offset="1" stop-color="#AEA9ED"/>
</linearGradient>
</defs>
</svg>
